# Blender v2.79 (sub 0) OBJ File: ''
# www.blender.org
mtllib untitled.mtl
o Cube
v 0.407721 1.549792 -0.036607
v 0.245146 -0.450208 -0.853937
v 0.376457 1.549792 -0.027123
v 0.057552 -0.450208 -0.797032
v 0.347645 1.549792 -0.011722
v -0.115335 -0.450208 -0.704622
v 0.322390 1.549792 0.009004
v -0.266871 -0.450208 -0.580259
v 0.301664 1.549792 0.034258
v -0.391235 -0.450208 -0.428723
v 0.286263 1.549792 0.063071
v -0.483645 -0.450208 -0.255836
v 0.276779 1.549792 0.094335
v -0.540551 -0.450208 -0.068243
v 0.273577 1.549792 0.126848
v -0.559766 -0.450208 0.126848
v 0.276779 1.549792 0.159361
v -0.540551 -0.450208 0.321938
v 0.286263 1.549792 0.190625
v -0.483645 -0.450208 0.509531
v 0.301664 1.549792 0.219438
v -0.391236 -0.450208 0.682418
v 0.322390 1.549792 0.244693
v -0.266873 -0.450208 0.833955
v 0.347644 1.549792 0.265419
v -0.115336 -0.450208 0.958318
v 0.376457 1.549792 0.280820
v 0.057551 -0.450208 1.050728
v 0.407721 1.549792 0.290303
v 0.245144 -0.450208 1.107634
v 0.440234 1.549792 0.293506
v 0.440234 -0.450208 1.126849
v 0.472747 1.549792 0.290303
v 0.635324 -0.450208 1.107634
v 0.504011 1.549792 0.280820
v 0.822918 -0.450208 1.050728
v 0.532824 1.549792 0.265419
v 0.995805 -0.450208 0.958318
v 0.558079 1.549792 0.244693
v 1.147341 -0.450208 0.833955
v 0.578805 1.549792 0.219438
v 1.271704 -0.450208 0.682419
v 0.594205 1.549792 0.190625
v 1.364114 -0.450208 0.509532
v 0.603689 1.549792 0.159362
v 1.421020 -0.450208 0.321939
v 0.606891 1.549792 0.126848
v 1.440234 -0.450208 0.126848
v 0.603689 1.549792 0.094335
v 1.421020 -0.450208 -0.068242
v 0.594205 1.549792 0.063071
v 1.364114 -0.450208 -0.255835
v 0.578805 1.549792 0.034259
v 1.271704 -0.450208 -0.428722
v 0.558079 1.549792 0.009004
v 1.147341 -0.450208 -0.580258
v 0.532824 1.549792 -0.011722
v 0.995805 -0.450208 -0.704621
v 0.504011 1.549792 -0.027123
v 0.822918 -0.450208 -0.797031
v 0.472747 1.549792 -0.036607
v 0.635325 -0.450208 -0.853937
v 0.440234 1.549792 -0.039809
v 0.440234 -0.450208 -0.873151
vt 0.135233 0.924842
vt 0.268750 0.458358
vt 0.275679 0.460157
vt 0.176810 0.935641
vt 0.491710 0.065166
vt 0.713628 0.493673
vt 0.708449 0.497098
vt 0.460638 0.085719
vt 0.218428 0.942827
vt 0.282615 0.461355
vt 0.289291 0.461904
vt 0.258488 0.946123
vt 0.026354 0.875510
vt 0.250604 0.450136
vt 0.255967 0.453249
vt 0.058531 0.894188
vt 0.000000 0.855530
vt 0.246212 0.446806
vt 0.566559 0.030019
vt 0.726102 0.487815
vt 0.719589 0.490539
vt 0.527476 0.046359
vt 0.095295 0.910845
vt 0.262094 0.456025
vt 0.704252 0.500683
vt 0.435452 0.107227
vt 0.461806 0.929386
vt 0.686056 0.504013
vt 0.691419 0.507125
vt 0.493983 0.948064
vt 0.697546 0.509901
vt 0.530747 0.964722
vt 0.704201 0.512234
vt 0.570685 0.978719
vt 0.648604 0.007135
vt 0.739775 0.484002
vt 0.732918 0.485608
vt 0.607459 0.016775
vt 0.711130 0.514034
vt 0.612262 0.989518
vt 0.718067 0.515231
vt 0.653880 0.996704
vt 0.724743 0.515781
vt 0.693940 1.000000
vt 0.758008 0.002778
vt 0.758008 0.483276
vt 0.752566 0.482813
vt 0.725353 0.000000
vt 0.746410 0.483058
vt 0.688412 0.001471
vt 0.730903 0.515661
vt 0.730903 0.999280
vt 0.295451 0.461784
vt 0.295451 0.945404
vt 1.000000 0.501402
vt 1.000000 0.985022
vt 0.993840 0.984902
vt 0.963037 0.500683
vt 0.987164 0.985451
vt 0.922977 0.503979
vt 0.980228 0.986649
vt 0.881359 0.511165
vt 0.973299 0.988449
vt 0.839782 0.521964
vt 0.966643 0.990781
vt 0.799844 0.535961
vt 0.960516 0.993557
vt 0.763080 0.552619
vt 0.008367 0.288567
vt 0.000000 0.245406
vt 0.000000 0.201400
vt 0.008367 0.158239
vt 0.024780 0.117582
vt 0.048607 0.080992
vt 0.078934 0.049874
vt 0.114594 0.025426
vt 0.154218 0.008585
vt 0.196282 0.000000
vt 0.239170 0.000000
vt 0.281234 0.008585
vt 0.320858 0.025426
vt 0.356518 0.049875
vt 0.386845 0.080992
vt 0.410672 0.117582
vt 0.427085 0.158239
vt 0.435452 0.201400
vt 0.435452 0.245406
vt 0.427085 0.288567
vt 0.410672 0.329224
vt 0.386845 0.365814
vt 0.356518 0.396932
vt 0.320858 0.421380
vt 0.281234 0.438221
vt 0.239170 0.446806
vt 0.196282 0.446806
vt 0.154218 0.438221
vt 0.114594 0.421380
vt 0.078934 0.396932
vt 0.048607 0.365814
vt 0.024780 0.329224
vt 0.955153 0.996670
vt 0.730903 0.571296
vt 0.435452 0.909407
vt 0.681664 0.500683
vt 0.366628 0.473178
vt 0.368022 0.480371
vt 0.368022 0.487705
vt 0.366628 0.494898
vt 0.363893 0.501674
vt 0.359921 0.507772
vt 0.354867 0.512958
vt 0.348924 0.517032
vt 0.342321 0.519839
vt 0.335310 0.521270
vt 0.328163 0.521270
vt 0.321152 0.519839
vt 0.314549 0.517032
vt 0.308606 0.512958
vt 0.303552 0.507772
vt 0.299581 0.501674
vt 0.296845 0.494898
vt 0.295451 0.487705
vt 0.295451 0.480371
vt 0.296845 0.473178
vt 0.299581 0.466402
vt 0.303552 0.460304
vt 0.308606 0.455118
vt 0.314549 0.451044
vt 0.321152 0.448237
vt 0.328163 0.446806
vt 0.335310 0.446806
vt 0.342321 0.448237
vt 0.348924 0.451044
vt 0.354867 0.455118
vt 0.359922 0.460304
vt 0.363893 0.466402
vn -0.7141 0.3830 0.5860
vn 0.2681 0.3830 0.8840
vn -0.8840 0.3830 0.2681
vn -0.2681 0.3830 0.8840
vn -0.0905 0.3830 0.9193
vn 0.5860 0.3830 0.7141
vn -0.5860 0.3830 0.7141
vn 0.0905 0.3830 0.9193
vn 0.0905 0.3830 -0.9193
vn 0.2681 0.3830 -0.8840
vn 0.4354 0.3830 -0.8147
vn 0.8147 0.3830 0.4354
vn 0.5860 0.3830 -0.7141
vn 0.7141 0.3830 -0.5860
vn 0.4354 0.3830 0.8147
vn 0.8147 0.3830 -0.4354
vn 0.9193 0.3830 -0.0905
vn 0.7141 0.3830 0.5860
vn 0.9193 0.3830 0.0905
vn -0.4354 0.3830 0.8147
vn 0.8840 0.3830 -0.2681
vn -0.8147 0.3830 0.4354
vn 0.8840 0.3830 0.2681
vn -0.9193 0.3830 0.0905
vn -0.9193 0.3830 -0.0905
vn -0.8840 0.3830 -0.2681
vn -0.8147 0.3830 -0.4354
vn -0.7141 0.3830 -0.5860
vn -0.5860 0.3830 -0.7141
vn -0.4354 0.3830 -0.8147
vn 0.0000 -1.0000 -0.0000
vn -0.2681 0.3830 -0.8840
vn -0.0905 0.3830 -0.9193
vn 0.0000 1.0000 -0.0000
usemtl Material
s off
f 24/1/1 23/2/1 21/3/1 22/4/1
f 36/5/2 35/6/2 33/7/2 34/8/2
f 20/9/3 19/10/3 17/11/3 18/12/3
f 30/13/4 29/14/4 27/15/4 28/16/4
f 32/17/5 31/18/5 29/14/5 30/13/5
f 40/19/6 39/20/6 37/21/6 38/22/6
f 26/23/7 25/24/7 23/2/7 24/1/7
f 34/8/8 33/7/8 31/25/8 32/26/8
f 64/27/9 63/28/9 61/29/9 62/30/9
f 62/30/10 61/29/10 59/31/10 60/32/10
f 60/32/11 59/31/11 57/33/11 58/34/11
f 44/35/12 43/36/12 41/37/12 42/38/12
f 58/34/13 57/33/13 55/39/13 56/40/13
f 56/40/14 55/39/14 53/41/14 54/42/14
f 38/22/15 37/21/15 35/6/15 36/5/15
f 54/42/16 53/41/16 51/43/16 52/44/16
f 50/45/17 49/46/17 47/47/17 48/48/17
f 42/38/18 41/37/18 39/20/18 40/19/18
f 48/48/19 47/47/19 45/49/19 46/50/19
f 28/16/20 27/15/20 25/24/20 26/23/20
f 52/44/21 51/43/21 49/51/21 50/52/21
f 22/4/22 21/3/22 19/10/22 20/9/22
f 46/50/23 45/49/23 43/36/23 44/35/23
f 18/12/24 17/11/24 15/53/24 16/54/24
f 16/55/25 15/56/25 13/57/25 14/58/25
f 14/58/26 13/57/26 11/59/26 12/60/26
f 12/60/27 11/59/27 9/61/27 10/62/27
f 10/62/28 9/61/28 7/63/28 8/64/28
f 8/64/29 7/63/29 5/65/29 6/66/29
f 6/66/30 5/65/30 3/67/30 4/68/30
f 20/69/31 18/70/31 16/71/31 14/72/31 12/73/31 10/74/31 8/75/31 6/76/31 4/77/31 2/78/31 64/79/31 62/80/31 60/81/31 58/82/31 56/83/31 54/84/31 52/85/31 50/86/31 48/87/31 46/88/31 44/89/31 42/90/31 40/91/31 38/92/31 36/93/31 34/94/31 32/95/31 30/96/31 28/97/31 26/98/31 24/99/31 22/100/31
f 4/68/32 3/67/32 1/101/32 2/102/32
f 2/103/33 1/104/33 63/28/33 64/27/33
f 25/105/34 27/106/34 29/107/34 31/108/34 33/109/34 35/110/34 37/111/34 39/112/34 41/113/34 43/114/34 45/115/34 47/116/34 49/117/34 51/118/34 53/119/34 55/120/34 57/121/34 59/122/34 61/123/34 63/124/34 1/125/34 3/126/34 5/127/34 7/128/34 9/129/34 11/130/34 13/131/34 15/132/34 17/133/34 19/134/34 21/135/34 23/136/34
